<svg xmlns="http://www.w3.org/2000/svg" viewBox="0 0 290.05 290.05"><defs><style>.cls-1{fill:#2c9ed8;}</style></defs><title>Asset 2</title><g id="Layer_2" data-name="Layer 2"><g id="Layer_1-2" data-name="Layer 1"><path class="cls-1" d="M289.94,99.21c0-.18-.07-.36-.1-.54-.06-.35-.13-.7-.22-1s-.13-.4-.19-.6-.2-.61-.32-.91-.18-.41-.28-.61-.27-.56-.42-.82-.24-.39-.35-.58-.34-.51-.53-.76l-.43-.54c-.2-.23-.4-.46-.62-.67s-.32-.34-.5-.49-.46-.4-.71-.59l-.56-.43-.21-.15L151.94,2.09a12.46,12.46,0,0,0-13.83,0L5.55,90.47l-.21.15c-.19.14-.38.28-.56.43s-.48.39-.71.59-.34.32-.5.49-.42.44-.62.67-.29.36-.43.54-.36.5-.52.76-.24.38-.36.58-.29.54-.42.82-.19.4-.28.61-.22.6-.32.91-.14.4-.19.6-.15.69-.22,1c0,.18-.08.36-.1.54A12,12,0,0,0,0,100.84v88.37a12.25,12.25,0,0,0,.11,1.63c0,.18.07.36.1.53.06.35.13.7.22,1s.13.4.19.6.2.61.32.91.18.41.28.6.27.56.42.83l.36.57c.16.26.34.51.52.76s.28.37.43.54.4.46.62.67.32.34.5.49.46.41.71.6.37.29.56.43l.21.15L138.11,288a12.44,12.44,0,0,0,13.83,0L284.5,199.58l.21-.15c.19-.14.38-.28.56-.43s.48-.39.71-.6.33-.32.5-.49.42-.44.62-.67.29-.35.43-.54.36-.5.53-.76l.35-.57c.16-.28.29-.55.42-.83s.19-.4.28-.6.22-.61.32-.91.14-.4.19-.6.16-.69.22-1c0-.17.08-.36.1-.53a13,13,0,0,0,.11-1.63V100.84A12.77,12.77,0,0,0,289.94,99.21ZM157.49,35.75l97.65,65.1L211.52,130l-54-36.15Zm-24.93,0V93.89L78.53,130,34.91,100.85ZM24.93,124.17,56.11,145,24.93,165.88ZM132.56,254.29l-97.65-65.1L78.53,160l54,36.14ZM145,174.51,100.94,145,145,115.54,189.11,145Zm12.46,79.78V196.16l54-36.14,43.62,29.17Zm107.63-88.41L233.94,145l31.18-20.86Z"/></g></g></svg>