<svg xmlns="http://www.w3.org/2000/svg" viewBox="0 0 298.15 192.97"><defs><style>.cls-1{fill:#01a1ea;}</style></defs><title>Asset 1</title><g id="Layer_2" data-name="Layer 2"><g id="Layer_1-2" data-name="Layer 1"><path class="cls-1" d="M298.15,0V193H0V0ZM281.29,15.14H16.8c0,7.42.06,14.66,0,21.9A4.2,4.2,0,0,0,19,40.9q54.92,37.73,109.76,75.54L149,130.39c.76-.5,1.42-.92,2.05-1.35l45.32-31.21q41.56-28.62,83.1-57.26c.81-.56,1.71-1.51,1.73-2.29C281.34,30.62,281.29,23,281.29,15.14ZM268,177.94l-73-59.56c-.72.46-1.31.83-1.87,1.22q-21.12,14.53-42.2,29.09c-1.29.9-2.08,1.14-3.54.11-8.67-6.09-17.45-12.07-26.19-18.09l-18-12.37-73.08,59.6Zm-59.1-69.23,72.23,58.9V59Zm-119.7,0L17,59V167.6Z"/></g></g></svg>