<svg xmlns="http://www.w3.org/2000/svg" viewBox="0 0 217.57 217.53"><defs><style>.cls-1{fill:#01a1ea;}</style></defs><title>Asset 1</title><g id="Layer_2" data-name="Layer 2"><g id="Layer_1-2" data-name="Layer 1"><path class="cls-1" d="M217.15,46.85c-3-26.18-26-46.76-52.29-46.85h-.21A53.6,53.6,0,0,0,127,14.75c-8,7.41-15.8,15.23-23.37,22.79q-4,4-8.06,8l-2.87,2.82C85.3,55.68,77.61,63.22,72.52,72.9a4.31,4.31,0,0,1-1.31,1,13.27,13.27,0,0,0-1.14.73c-1.38,1-2.84,2-4.25,3a69.56,69.56,0,0,0-9.21,7.11C44.66,96.3,31.83,109.09,16.24,125,3.45,138-1.82,153.61.56,171.35,4,197.21,27.18,217.5,53.27,217.53h0a53.32,53.32,0,0,0,37.66-15.09c7.47-7.11,14.86-14.54,22-21.72,5.16-5.19,10.5-10.56,15.82-15.76a92.12,92.12,0,0,0,15.88-20,7.14,7.14,0,0,1,2-1.8l.24-.17c1.4-1,2.9-2,4.35-2.93a56.91,56.91,0,0,0,8.71-6.5c15.26-14.79,30.16-29.85,41.44-41.32C213.86,79.51,219.16,64.25,217.15,46.85ZM123.41,73.07l7-6.93,7.36-7.38c5-5.06,10.25-10.29,15.43-15.38a15.49,15.49,0,0,1,15-4.19A14.39,14.39,0,0,1,178.3,49.57a14,14,0,0,1-3.88,14.2c-7.89,8-16,16.14-23.89,24l-7.83,7.8c-.72-.93-1.43-1.86-2.13-2.77A81.74,81.74,0,0,0,133.22,84a82.57,82.57,0,0,0-8.83-7.25c-.89-.66-1.78-1.32-2.66-2ZM87.35,150.93c-7.49,7.52-15.24,15.29-22.93,22.87C58.15,180,49,180.17,43,174.24a14.58,14.58,0,0,1,0-20.62c7.7-7.92,15.72-15.89,23.47-23.6l8.68-8.64A55.33,55.33,0,0,0,96,142.23Zm45.89-45.81c-3.74,4.06-8.1,5.65-13,4.7a10,10,0,0,1-5.19-3.09c-5.24-6-12.12-9.47-19.37-9.72a26.06,26.06,0,0,0-19.36,8.05c-14.59,14.63-27.54,27.7-39.57,40-5.55,5.66-8.48,12.66-8.24,19.73a24,24,0,0,0,8.3,17.2,24.81,24.81,0,0,0,34.35-.87C82,170.36,93,159.37,104.76,147.48a1.88,1.88,0,0,1,2.39-.64,46.31,46.31,0,0,0,23.19.91h0l-.37.52a42.14,42.14,0,0,1-4.16,5.2q-4.71,4.74-9.41,9.51c-10.61,10.75-21.58,21.87-32.75,32.37A43.25,43.25,0,0,1,12.47,176.5c-4.8-15.47-1.66-29.78,9.08-41.37,15.75-17,30.68-31.92,45.65-45.68a41.79,41.79,0,0,1,28.43-11,44.53,44.53,0,0,1,7.3.61,42.69,42.69,0,0,1,30.67,21.86C134.53,102.66,134.43,103.83,133.24,105.12Zm-49.3,10.74a2.68,2.68,0,0,1,.36-3.26c2.22-3,7.51-5.18,11.71-5.18a8.78,8.78,0,0,1,3,.48,8.27,8.27,0,0,1,3.61,2.65c4.11,5.68,11.38,9.52,19,10a25.12,25.12,0,0,0,20.18-7.85c8-8.4,16.41-16.71,24.53-24.76,4.86-4.81,9.88-9.79,14.77-14.73,7.87-8,10.29-17,7-26.17s-10.59-15.91-19.44-17.79c-8.52-1.82-17.05.92-23.4,7.52-6.74,7-13.77,14-20.57,20.74-4,4-8.16,8.1-12.21,12.19a1.88,1.88,0,0,1-2.37.64c-6.8-2.13-14.08-2.53-22.86-1.27l.08-.11a45.53,45.53,0,0,1,4-4.8q5.48-5.5,10.92-11.05c10.33-10.5,21-21.35,32-31.48,13.32-12.29,29.05-15.22,45.5-8.46,16.3,6.69,25.8,19.57,27.47,37.23,1.12,11.79-2.6,22.6-11.06,32.12-3.76,4.23-7.86,8.32-11.82,12.28l-3.79,3.79q-4.68,4.73-9.41,9.41c-5.45,5.42-11.08,11-16.5,16.68-12.36,12.89-27.21,16.82-45.39,12C98.48,133.9,90.21,127.07,83.95,115.86Z"/></g></g></svg>